Confidati Con Me -- Confide In Me

Also Known As:
Una Pornodiva con i tacchi a spillo (Christophe Clark credited as Director)
Belle Angelica Bella (Marc Dorcel, Barbara Hoff and Karin Davis also credited)

Director:
Castel Randy

Actresses:
Deborah Wells
Angelica Bella
Enrica Felicey (may be fake and refer to no one)
Judith de Ville
Stella Grey
Thunde

Actors:
Alfonso Gutari
Christophe Clark

Specs:
Video: 672x512 pixels, 2150.35 kbit/s, Xvid
Audio: 44.1 kHz, 93.75 kbit/s, MPEG3

Duration:
01:27:09

Language:
Italian



   General
      Complete name : Confidati.Con.Me.XXX.1994.DVDRip.XViD.GePi.avi
      Format : AVI
      Format/Info : Audio Video Interleave
      File size : 1.40 GiB
      Duration : 1h 27mn
      Overall bit rate : 2 308 Kbps
      Writing application : VirtualDubMod 1.5.10.1 (build 2439/release)
      Writing library : VirtualDubMod build 2439/release
   Video #0
      ID : 0
      Format : MPEG-4 Visual
      Format profile : Simple@L3
      Format settings, BVOP : 2
      Format settings, QPel : No
      Format settings, GMC : No warppoints
      Format settings, Matrix : Custom
      Codec ID : XVID
      Codec ID/Hint : XviD
      Duration : 1h 27mn
      Bit rate : 2 202 Kbps
      Width : 672 pixels
      Height : 512 pixels
      Display aspect ratio : 4:3
      Frame rate : 25.000 fps
      Color space : YUV
      Chroma subsampling : 4:2:0
      Bit depth : 8 bits
      Scan type : Progressive
      Compression mode : Lossy
      Bits/(Pixel*Frame) : 0.256
      Stream size : 1.34 GiB (95%)
      Writing library : XviD 1.0.3 (UTC 2004-12-20)
   Audio #1
      ID : 1
      Format : MPEG Audio
      Format version : Version 1
      Format profile : Layer 3
      Mode : Dual mono
      Codec ID : 55
      Codec ID/Hint : MP3
      Duration : 1h 27mn
      Bit rate mode : Constant
      Bit rate : 96.0 Kbps
      Channel(s) : 2 channels
      Sampling rate : 44.1 KHz
      Compression mode : Lossy
      Stream size : 59.8 MiB (4%)
      Alignment : Split accross interleaves
      Interleave, duration : 40 ms (1.00 video frame)
      Interleave, preload duration : 500 ms

screens: 
http://bayimg.com/iaGhHAAei 
http://bayimg.com/iAGhIaAei


GePi
@@2012@@
#NoOne left
#Greetz all riperz
#Greetz all HD2DVD makerz
#Greetz all P2P groups

....and don't forget to kiss the bride!